<?xml version="1.0" encoding="UTF-8"?>
<svg xmlns="http://www.w3.org/2000/svg" viewBox="0 0 24 24" fill="currentColor">
  <path d="M12 2.2c3.2 0 3.6 0 4.9.1 1.2.1 1.9.3 2.3.5.6.2 1.1.6 1.6 1.1.5.5.9 1 1.1 1.6.2.4.4 1.1.5 2.3.1 1.3.1 1.7.1 4.9s0 3.6-.1 4.9c-.1 1.2-.3 1.9-.5 2.3-.2.6-.6 1.1-1.1 1.6-.5.5-1 .9-1.6 1.1-.4.2-1.1.4-2.3.5-1.3.1-1.7.1-4.9.1s-3.6 0-4.9-.1c-1.2-.1-1.9-.3-2.3-.5-.6-.2-1.1-.6-1.6-1.1-.5-.5-.9-1-1.1-1.6-.2-.4-.4-1.1-.5-2.3C2.2 15.6 2.2 15.2 2.2 12s0-3.6.1-4.9c.1-1.2.3-1.9.5-2.3.2-.6.6-1.1 1.1-1.6.5-.5 1-.9 1.6-1.1.4-.2 1.1-.4 2.3-.5C8.4 2.2 8.8 2.2 12 2.2zm0-2.2C8.7 0 8.3 0 7 0 5.7 0 4.6.1 3.8.4c-.9.3-1.7.7-2.5 1.5C.5 2.7.1 3.5-.2 4.4-.4 5.2-.5 6.3-.5 7.6v8.8c0 1.3.1 2.4.4 3.2.3.9.7 1.7 1.5 2.5.8.8 1.6 1.2 2.5 1.5.8.3 1.9.4 3.2.4h8.8c1.3 0 2.4-.1 3.2-.4.9-.3 1.7-.7 2.5-1.5.8-.8 1.2-1.6 1.5-2.5.3-.8.4-1.9.4-3.2V7.6c0-1.3-.1-2.4-.4-3.2-.3-.9-.7-1.7-1.5-2.5C20.8.5 20 .1 19.1-.2c-.8-.3-1.9-.4-3.2-.4H7c-1.3 0-2.4.1-3.2.4C3 0 2.2.5 1.4 1.4.6 2.2.1 3 0 3.8-.3 4.6-.4 5.7-.4 7v8.8c0 1.3.1 2.4.4 3.2.3.9.7 1.7 1.5 2.5.8.8 1.6 1.2 2.5 1.5.8.3 1.9.4 3.2.4h8.8c1.3 0 2.4-.1 3.2-.4.9-.3 1.7-.7 2.5-1.5.8-.8 1.2-1.6 1.5-2.5.3-.8.4-1.9.4-3.2V7c0-1.3-.1-2.4-.4-3.2-.3-.9-.7-1.7-1.5-2.5-.8-.8-1.6-1.2-2.5-1.5C16.4.1 15.3 0 14 0H7z"/>
  <path d="M12 5.8c-3.4 0-6.2 2.7-6.2 6.2s2.8 6.2 6.2 6.2 6.2-2.7 6.2-6.2S15.4 5.8 12 5.8zm0 10.3c-2.3 0-4.1-1.8-4.1-4.1 0-2.3 1.8-4.1 4.1-4.1 2.3 0 4.1 1.8 4.1 4.1 0 2.3-1.8 4.1-4.1 4.1z"/>
  <circle cx="18.4" cy="5.6" r="1.4" />
</svg>