<svg width="24" height="24" viewBox="0 0 24 24" fill="none" xmlns="http://www.w3.org/2000/svg">
  <path d="M5.75 8.5H2.6V21H5.75V8.5Z" fill="#EAF2FF"/>
  <path d="M4.16 3C3.15 3 2.5 3.67 2.5 4.55C2.5 5.41 3.13 6.1 4.12 6.1H4.14C5.18 6.1 5.82 5.41 5.82 4.55C5.8 3.67 5.18 3 4.16 3Z" fill="#EAF2FF"/>
  <path d="M13.5 8.21C11.68 8.21 10.86 9.21 10.45 9.91V8.5H7.3C7.34 9.43 7.3 21 7.3 21H10.45V14.02C10.45 13.64 10.48 13.26 10.59 12.99C10.88 12.24 11.53 11.46 12.65 11.46C14.12 11.46 14.71 12.58 14.71 14.22V21H17.86V13.86C17.86 10.03 15.82 8.21 13.5 8.21Z" fill="#EAF2FF"/>
</svg>
