<?xml version="1.0" encoding="UTF-8"?>
<svg xmlns="http://www.w3.org/2000/svg" viewBox="0 0 24 24" fill="currentColor">
  <path d="M23 3.1c-.8.4-1.6.7-2.5.8.9-.5 1.6-1.4 2-2.3-.9.5-1.8.9-2.8 1.1-.9-.9-2.1-1.4-3.4-1.4-2.7 0-4.8 2.1-4.8 4.8 0 .4 0 .7.1 1.1-4-.2-7.6-2.1-9.9-5-.4.7-.6 1.4-.6 2.3 0 1.6.8 3 2.1 3.8-.7 0-1.3-.2-1.9-.5v.1c0 2.2 1.6 4 3.7 4.4-.4.1-.8.2-1.2.2-.3 0-.6 0-.9-.1.6 1.8 2.3 3.1 4.3 3.1-1.6 1.3-3.6 2.1-5.8 2.1-.4 0-.8 0-1.2-.1C2.1 19.5 4.7 20.3 7.5 20.3c9.1 0 14.1-7.6 14.1-14.1v-.6c1-.7 1.7-1.5 2.4-2.5z"/>
</svg>